<svg xmlns="http://www.w3.org/2000/svg" width="565px" height="310px" style="border: 1px solid black;"><circle cx="30" cy="120" r="20" fill="white" stroke="black" stroke-width="3"></circle><text x="30" y="120" font-family="Arial, sans-serif" font-size="22" text-anchor="middle" dominant-baseline="central" fill="black">A</text><text x="10" y="90" font-family="Arial, sans-serif" font-size="14" fill="black">branch: 0</text><text x="10" y="70" font-family="Arial, sans-serif" font-size="14" fill="black">clock: 0</text><circle cx="190" cy="120" r="20" fill="white" stroke="black" stroke-width="3"></circle><text x="190" y="120" font-family="Arial, sans-serif" font-size="22" text-anchor="middle" dominant-baseline="central" fill="black">B</text><text x="170" y="90" font-family="Arial, sans-serif" font-size="14" fill="black">branch: 0</text><text x="170" y="70" font-family="Arial, sans-serif" font-size="14" fill="black">clock: 1</text><circle cx="350" cy="120" r="20" fill="white" stroke="black" stroke-width="3"></circle><text x="350" y="120" font-family="Arial, sans-serif" font-size="22" text-anchor="middle" dominant-baseline="central" fill="black">C</text><text x="330" y="90" font-family="Arial, sans-serif" font-size="14" fill="black">branch: 0</text><text x="330" y="70" font-family="Arial, sans-serif" font-size="14" fill="black">clock: 2</text><circle cx="190" cy="220" r="20" fill="white" stroke="black" stroke-width="3"></circle><text x="190" y="220" font-family="Arial, sans-serif" font-size="22" text-anchor="middle" dominant-baseline="central" fill="black">D</text><text x="170" y="190" font-family="Arial, sans-serif" font-size="14" fill="black">branch: 1</text><text x="170" y="170" font-family="Arial, sans-serif" font-size="14" fill="black">clock: 1</text><circle cx="350" cy="220" r="20" fill="white" stroke="black" stroke-width="3"></circle><text x="350" y="220" font-family="Arial, sans-serif" font-size="22" text-anchor="middle" dominant-baseline="central" fill="black">E</text><text x="330" y="190" font-family="Arial, sans-serif" font-size="14" fill="black">branch: 1</text><text x="330" y="170" font-family="Arial, sans-serif" font-size="14" fill="black">clock: 2</text><rect x="475" y="150" stroke="lightgreen" stroke-width="2px" fill="none" width="80px" height="100px" rx="20px"></rect><circle cx="510" cy="220" r="20" fill="white" stroke="black" stroke-width="3"></circle><text x="510" y="220" font-family="Arial, sans-serif" font-size="22" text-anchor="middle" dominant-baseline="central" fill="black">F</text><text x="490" y="190" font-family="Arial, sans-serif" font-size="14" fill="black">branch: 1</text><text x="490" y="170" font-family="Arial, sans-serif" font-size="14" fill="black">clock: 3</text><line x1="58" y1="120" x2="162" y2="120" stroke="black" stroke-width="3"></line><line x1="218" y1="120" x2="322" y2="120" stroke="black" stroke-width="3"></line><line x1="53.743952512142464" y1="134.83997032008904" x2="166.25604748785753" y2="205.16002967991096" stroke="black" stroke-width="3"></line><line x1="218" y1="220" x2="322" y2="220" stroke="black" stroke-width="3"></line><line x1="213.74395251214247" y1="134.83997032008904" x2="326.25604748785753" y2="205.16002967991096" stroke="black" stroke-width="3"></line><line x1="378" y1="220" x2="482" y2="220" stroke="black" stroke-width="3"></line></svg>