<svg xmlns="http://www.w3.org/2000/svg" width="565px" height="310px" style=""><circle cx="30" cy="70" r="20" fill="white" stroke="black" stroke-width="3"></circle><text x="30" y="70" font-family="Arial, sans-serif" font-size="22" text-anchor="middle" dominant-baseline="central" fill="black">A</text><text x="10" y="40" font-family="Arial, sans-serif" font-size="14" fill="black">branch: 0</text><text x="10" y="20" font-family="Arial, sans-serif" font-size="14" fill="black">clock: 0</text><circle cx="190" cy="70" r="20" fill="white" stroke="black" stroke-width="3"></circle><text x="190" y="70" font-family="Arial, sans-serif" font-size="22" text-anchor="middle" dominant-baseline="central" fill="black">B</text><text x="170" y="40" font-family="Arial, sans-serif" font-size="14" fill="black">branch: 0</text><text x="170" y="20" font-family="Arial, sans-serif" font-size="14" fill="black">clock: 1</text><circle cx="350" cy="70" r="20" fill="white" stroke="black" stroke-width="3"></circle><text x="350" y="70" font-family="Arial, sans-serif" font-size="22" text-anchor="middle" dominant-baseline="central" fill="black">C</text><text x="330" y="40" font-family="Arial, sans-serif" font-size="14" fill="black">branch: 0</text><text x="330" y="20" font-family="Arial, sans-serif" font-size="14" fill="black">clock: 2</text><circle cx="190" cy="170" r="20" fill="white" stroke="black" stroke-width="3"></circle><text x="190" y="170" font-family="Arial, sans-serif" font-size="22" text-anchor="middle" dominant-baseline="central" fill="black">D</text><text x="170" y="140" font-family="Arial, sans-serif" font-size="14" fill="black">branch: 1</text><text x="170" y="120" font-family="Arial, sans-serif" font-size="14" fill="black">clock: 1</text><circle cx="350" cy="170" r="20" fill="white" stroke="black" stroke-width="3"></circle><text x="350" y="170" font-family="Arial, sans-serif" font-size="22" text-anchor="middle" dominant-baseline="central" fill="black">E</text><text x="330" y="140" font-family="Arial, sans-serif" font-size="14" fill="black">branch: 1</text><text x="330" y="120" font-family="Arial, sans-serif" font-size="14" fill="black">clock: 2</text><circle cx="510" cy="170" r="20" fill="white" stroke="black" stroke-width="3"></circle><text x="510" y="170" font-family="Arial, sans-serif" font-size="22" text-anchor="middle" dominant-baseline="central" fill="black">F</text><text x="490" y="140" font-family="Arial, sans-serif" font-size="14" fill="black">branch: 1</text><text x="490" y="120" font-family="Arial, sans-serif" font-size="14" fill="black">clock: 3</text><rect x="475" y="200" stroke="lightgreen" stroke-width="2px" fill="none" width="80px" height="100px" rx="20px"></rect><circle cx="510" cy="270" r="20" fill="white" stroke="black" stroke-width="3"></circle><text x="510" y="270" font-family="Arial, sans-serif" font-size="22" text-anchor="middle" dominant-baseline="central" fill="black">G</text><text x="490" y="240" font-family="Arial, sans-serif" font-size="14" fill="black">branch: 2</text><text x="490" y="220" font-family="Arial, sans-serif" font-size="14" fill="black">clock: 3</text><line x1="58" y1="70" x2="162" y2="70" stroke="black" stroke-width="3"></line><line x1="218" y1="70" x2="322" y2="70" stroke="black" stroke-width="3"></line><line x1="53.743952512142464" y1="84.83997032008904" x2="166.25604748785753" y2="155.16002967991096" stroke="black" stroke-width="3"></line><line x1="218" y1="170" x2="322" y2="170" stroke="black" stroke-width="3"></line><line x1="213.74395251214247" y1="84.83997032008904" x2="326.25604748785753" y2="155.16002967991096" stroke="black" stroke-width="3"></line><line x1="378" y1="170" x2="482" y2="170" stroke="black" stroke-width="3"></line><line x1="367.49146133152385" y1="91.86432666440484" x2="492.50853866847615" y2="248.13567333559516" stroke="black" stroke-width="3"></line><line x1="373.74395251214247" y1="184.83997032008904" x2="486.25604748785753" y2="255.16002967991096" stroke="black" stroke-width="3"></line></svg>